<?xml version="1.0" encoding="UTF-8"?>
<svg id="Layer_1" data-name="Layer 1" xmlns="http://www.w3.org/2000/svg" xmlns:xlink="http://www.w3.org/1999/xlink" viewBox="0 0 1920 843.19">
  <image width="6528" height="4449" transform="translate(-253.7 -85.67) rotate(-8.57) scale(.33)" xlink:href="jukebox-wave.png"/>
  <path d="M246.55,365.95h124.05l70.89,21.27,56.71,31.9,56.71,31.9,24.81,23.49,38.99,29.68,38.99,17.72,223.29,47.85h79.02s2.5-23.04,52.13,0l49.62,23.04,31.9,17.72,38.99,28.35,35.44,38.99,28.35,49.62,67.34,21.27,223.29,25.7h45.19l50.51,15.95,47.85,18.61,54.94,34.2v15.42L0,843.19V280.89" fill="#ec3dbb"/>
  <path d="M1263.77,748.74l-.24-.08-19.03-2.24c-2.58-2.1-5.18-4.18-7.8-6.23l26.83,8.47,17.09,2.02-11.53-21.43-15.95-7.97-43.09-7.39,4.18,9.78c-5.28-3.65-10.62-7.21-16.04-10.66-.33-.44-.65-.89-.98-1.33l12.84,2.2-3.15-7.37-9.59-22.46-43.83-22.26-208.7-62.81-446.59,15.95,411.54,154.18h370.89l-25.69-13.6,8.84-6.78Zm-84.19-40.08c.73,2.81,1.56,5.58,2.53,8.31l-22.01-11.65,19.48,3.34Z" fill="#ec3dbb"/>
  <path d="M16.69,313.21c-1.43-7.44-2.79-14.9-4.11-22.36,2.29-.66,4.13-2.83,3.46-5.96-.51-2.41-1.03-4.81-1.54-7.22-.57-2.66-2.61-3.7-4.7-3.54-.14-.58-.26-1.17-.37-1.77-1.12-6.35-10.67-3.62-9.64,2.66,2.23,13.65,4.65,27.27,7.25,40.85,1.21,6.31,10.85,3.64,9.64-2.66Z" fill="#ec3dbb"/>
</svg>